<?xml version="1.0" standalone="no"?>
<svg viewBox="0 0 200 200" xmlns="http://www.w3.org/2000/svg">
  <path fill="#241D26" d="M36.7,-58.7C44.9,-51.9,46.9,-37.1,54.1,-23.9C61.4,-10.8,73.8,0.8,72.2,10.2C70.5,19.5,54.8,26.7,43.9,36.4C33,46.2,26.9,58.5,16,67.7C5.1,77,-10.6,83.2,-21.5,77.8C-32.4,72.5,-38.5,55.6,-50.2,43C-61.9,30.4,-79.1,22.1,-84.2,10C-89.2,-2.2,-82.1,-18.2,-72.3,-30.2C-62.5,-42.2,-49.9,-50.2,-37.5,-55.1C-25,-59.9,-12.5,-61.6,0.9,-63C14.3,-64.4,28.5,-65.5,36.7,-58.7Z" transform="translate(100 100)" />
</svg>
